<svg width="1440" height="900" viewBox="0 0 1440 900" fill="none" xmlns="http://www.w3.org/2000/svg">
<g opacity="0.1">
<path opacity="0.04" d="M483.988 -660.648C283.252 -333.496 388.712 89.4803 719.54 284.097C1048.94 482.019 1155.52 909.497 957.599 1238.89" stroke="black" stroke-width="0.218671"/>
<path opacity="0.0905263" d="M418.3 -641.874C240.873 -301.517 375.582 113.073 719.18 284.139C1061.58 458.601 1197.72 877.602 1023.26 1220" stroke="black" stroke-width="0.218671"/>
<path opacity="0.141053" d="M354.081 -618.56C200.828 -266.656 364.129 137.527 718.823 284.208C1072.56 434.361 1237.6 842.844 1087.45 1196.58" stroke="black" stroke-width="0.218671"/>
<path opacity="0.191579" d="M291.635 -590.824C163.303 -229.086 354.401 162.721 718.463 284.302C1081.81 409.414 1274.94 805.39 1149.83 1168.74" stroke="black" stroke-width="0.218671"/>
<path opacity="0.242105" d="M231.29 -558.796C128.504 -188.987 346.467 188.535 718.123 284.425C1089.32 383.885 1309.6 765.425 1210.14 1136.62" stroke="black" stroke-width="0.218671"/>
<path opacity="0.292632" d="M173.314 -522.64C96.5753 -146.563 340.342 214.836 717.782 284.567C1095.01 357.892 1341.37 723.135 1268.04 1100.36" stroke="black" stroke-width="0.218671"/>
<path opacity="0.343158" d="M118.006 -482.529C67.6883 -102.014 336.071 241.5 717.456 284.732C1098.88 331.564 1370.12 678.733 1323.28 1060.16" stroke="black" stroke-width="0.218671"/>
<path opacity="0.393684" d="M65.6305 -438.655C41.9787 -55.5572 333.67 268.399 717.141 284.921C1100.9 305.033 1395.7 632.435 1375.59 1016.19" stroke="black" stroke-width="0.218671"/>
<path opacity="0.444211" d="M16.4442 -391.236C19.5735 -7.42158 333.152 295.398 716.842 285.13C1101.07 278.424 1417.99 584.464 1424.69 968.692" stroke="black" stroke-width="0.218671"/>
<path opacity="0.494737" d="M-29.3151 -340.502C0.580086 42.1594 334.518 322.367 716.557 285.36C1099.38 251.867 1436.87 535.055 1470.37 917.879" stroke="black" stroke-width="0.218671"/>
<path opacity="0.545263" d="M-71.4199 -286.698C-14.9044 92.9456 337.767 349.176 716.293 285.609C1095.85 225.494 1452.27 484.45 1512.39 864.005" stroke="black" stroke-width="0.218671"/>
<path opacity="0.595789" d="M-109.673 -230.086C-26.8121 144.691 342.874 375.696 716.044 285.879C1090.48 199.434 1464.1 432.896 1550.55 807.333" stroke="black" stroke-width="0.218671"/>
<path opacity="0.646316" d="M-143.883 -170.949C-35.0813 197.134 349.818 401.789 715.814 286.16C1083.31 173.806 1472.31 380.637 1584.66 748.132" stroke="black" stroke-width="0.3"/>
<path opacity="0.696842" d="M-173.889 -109.563C-39.6763 250.034 358.562 427.341 715.6 286.463C1074.36 148.747 1476.84 327.94 1614.55 686.702" stroke="black" stroke-width="0.4"/>
<path opacity="0.747368" d="M-199.535 -46.2381C-40.5648 303.121 369.071 452.216 715.413 286.776C1063.69 124.369 1477.69 275.05 1640.1 623.331" stroke="black" stroke-width="0.5"/>
<path opacity="0.797895" d="M-220.701 18.7266C-37.7485 356.145 381.29 476.303 715.248 287.106C1051.35 100.8 1474.85 222.234 1661.16 558.339" stroke="black" stroke-width="0.6"/>
<path opacity="0.848421" d="M-237.287 85.0052C-31.2425 408.84 395.157 499.474 715.103 287.442C1037.39 78.1446 1468.33 169.741 1677.63 492.031" stroke="black" stroke-width="0.7"/>
<path opacity="0.898947" d="M-249.205 152.274C-21.0732 460.947 410.61 521.617 714.986 287.783C1021.89 56.5135 1458.17 117.827 1689.44 424.731" stroke="black" stroke-width="0.8"/>
<path opacity="0.949474" d="M-256.406 220.217C-7.29806 512.224 427.566 542.633 714.889 288.137C1004.91 36.0222 1444.4 66.7527 1696.52 356.777" stroke="black"/>
<path d="M-258.845 288.499C10.0253 562.418 445.951 562.418 714.822 288.499C986.553 16.7674 1427.12 16.7657 1698.85 288.497" stroke="black"/>
</g>
</svg>