<svg width="72" height="72" viewBox="0 0 72 72" fill="none" xmlns="http://www.w3.org/2000/svg">
<rect width="72" height="72" rx="18" fill="white"/>
<rect x="0.5" y="0.5" width="71" height="71" rx="17.5" stroke="black" stroke-opacity="0.1"/>
<path d="M23.3816 23.1176L10.9873 35.7754C17.8543 42.7714 28.9281 42.7801 35.7951 35.7841L23.3816 23.1176Z" fill="url(#paint0_linear_101_23)"/>
<path d="M48.3576 48.2709L35.7952 35.7841C42.7353 28.844 54.0473 28.8353 60.9874 35.7754L48.3576 48.2709Z" fill="url(#paint1_linear_101_23)"/>
<path d="M23.3816 23.1176L10.9873 35.7754C17.8543 42.7714 28.9281 42.7801 35.7951 35.7841L23.3816 23.1176Z" fill="url(#paint2_linear_101_23)"/>
<path d="M48.3576 48.2709L35.7952 35.7841C42.7353 28.844 54.0473 28.8353 60.9874 35.7754L48.3576 48.2709Z" fill="url(#paint3_linear_101_23)"/>
<defs>
<linearGradient id="paint0_linear_101_23" x1="14.6874" y1="47.4243" x2="30.7999" y2="28.4683" gradientUnits="userSpaceOnUse">
<stop offset="0.175935"/>
<stop offset="0.872048" stop-opacity="0"/>
</linearGradient>
<linearGradient id="paint1_linear_101_23" x1="58.7601" y1="26.5727" x2="44.0692" y2="44.107" gradientUnits="userSpaceOnUse">
<stop offset="0.155424"/>
<stop offset="1" stop-opacity="0"/>
</linearGradient>
<linearGradient id="paint2_linear_101_23" x1="32.2216" y1="37.4724" x2="31.2738" y2="33.6812" gradientUnits="userSpaceOnUse">
<stop offset="0.175935"/>
<stop offset="0.872048" stop-opacity="0"/>
</linearGradient>
<linearGradient id="paint3_linear_101_23" x1="40.7519" y1="33.6812" x2="41.6997" y2="37.4724" gradientUnits="userSpaceOnUse">
<stop offset="0.155424"/>
<stop offset="1" stop-opacity="0"/>
</linearGradient>
</defs>
</svg>